# xmcd CD database file
#
# Track frame offsets:
#	150
#	25165
#	49145
#	74122
#
# Disc length: 1305 seconds
#
# Revision: 0
# Processed by: cddbd v1.5.1PL0 Copyright (c) Steve Scherf et al.
# Submitted via: CDex 1.51
#
DISCID=36051704
DTITLE=やしきたかじん - 泣いたら負け
DYEAR=1994
DGENRE=JPop
TTITLE0=泣いたら負け
TTITLE1=いいがかり
TTITLE2=泣いたら負け(カラオケ)
TTITLE3=いいがかり(カラオケ)
EXTD=YEAR: 1994
EXTT0=
EXTT1=
EXTT2=
EXTT3=
PLAYORDER=
